<svg width="42" height="43" viewBox="0 0 42 43" fill="none" xmlns="http://www.w3.org/2000/svg">
<mask id="mask0_1_8" style="mask-type:alpha" maskUnits="userSpaceOnUse" x="0" y="0" width="42" height="43">
<rect y="0.5" width="42" height="42" fill="#D9D9D9"/>
</mask>
<g mask="url(#mask0_1_8)">
<path d="M18.4187 30.425L31.4125 17.4313L27.7813 13.7563L18.4187 23.1188L13.9563 18.6563L10.325 22.3312L18.4187 30.425ZM21 40.4875C18.3458 40.4875 15.8669 39.9904 13.5631 38.9963C11.2593 38.0022 9.25525 36.6531 7.55107 34.9489C5.8469 33.2447 4.49776 31.2407 3.50367 28.9369C2.50956 26.6331 2.0125 24.1542 2.0125 21.5C2.0125 18.8458 2.50956 16.3669 3.50367 14.0631C4.49776 11.7593 5.8469 9.75525 7.55107 8.05108C9.25525 6.3469 11.2593 4.99776 13.5631 4.00367C15.8669 3.00956 18.3458 2.5125 21 2.5125C23.6542 2.5125 26.1331 3.00956 28.4369 4.00367C30.7407 4.99776 32.7447 6.3469 34.4489 8.05108C36.1531 9.75525 37.5022 11.7593 38.4963 14.0631C39.4904 16.3669 39.9875 18.8458 39.9875 21.5C39.9875 24.1542 39.4904 26.6331 38.4963 28.9369C37.5022 31.2407 36.1531 33.2447 34.4489 34.9489C32.7447 36.6531 30.7407 38.0022 28.4369 38.9963C26.1331 39.9904 23.6542 40.4875 21 40.4875Z" fill="#219653"/>
</g>
</svg>
